<svg id="svg" version="1.1" xmlns="http://www.w3.org/2000/svg" xmlns:xlink="http://www.w3.org/1999/xlink" width="400" height="400" viewBox="0, 0, 400,400"><g id="svgg"><path id="path0" d="M190.147 31.271 C 150.654 36.227,123.595 74.660,132.406 113.281 C 135.426 126.521,134.605 130.469,128.829 130.469 C 122.801 130.469,118.555 126.531,112.793 115.598 C 91.330 74.876,38.259 91.696,10.285 148.087 C -5.850 180.612,6.182 198.325,39.453 191.027 C 55.365 187.537,60.966 189.391,75.043 202.808 C 82.361 209.782,87.567 213.808,99.031 221.361 C 117.850 233.760,115.859 230.084,115.941 252.572 C 116.059 285.054,109.404 305.460,90.538 330.469 C 80.835 343.332,79.350 346.340,79.352 353.125 C 79.358 366.974,88.818 372.479,101.953 366.277 C 107.616 363.603,110.650 363.520,119.010 365.810 C 127.812 368.220,156.065 368.308,171.094 365.971 C 178.789 364.775,184.917 364.453,200.000 364.453 C 215.083 364.453,221.211 364.775,228.906 365.971 C 243.935 368.308,272.188 368.220,280.990 365.810 C 289.451 363.493,292.366 363.594,298.319 366.410 C 307.318 370.667,313.563 369.688,317.769 363.359 C 323.520 354.704,321.669 346.021,311.279 332.912 C 291.219 307.603,283.959 286.289,284.051 252.977 C 284.115 230.035,282.084 233.804,301.155 221.239 C 312.905 213.498,317.872 209.653,325.092 202.710 C 339.380 188.970,343.392 187.883,365.566 191.737 C 399.468 197.631,406.848 172.837,382.429 135.084 C 352.056 88.126,306.591 78.822,287.207 115.598 C 281.445 126.531,277.199 130.469,271.171 130.469 C 265.395 130.469,264.574 126.521,267.594 113.281 C 278.188 66.844,238.826 25.162,190.147 31.271 M215.450 39.480 C 248.111 47.327,268.247 80.602,260.265 113.538 C 256.233 130.178,260.266 138.137,272.289 137.267 C 281.267 136.617,286.716 132.040,293.322 119.601 C 311.375 85.609,352.523 97.636,379.949 144.922 C 397.434 175.067,391.490 189.849,364.063 184.436 C 342.619 180.204,335.986 182.269,319.080 198.444 C 312.746 204.504,307.511 208.581,299.549 213.653 C 287.214 221.512,281.690 225.472,278.997 228.387 L 277.134 230.402 277.048 251.725 C 276.901 287.986,283.278 307.782,303.946 335.220 C 314.144 348.759,315.207 351.484,312.596 357.386 C 310.253 362.684,308.129 363.198,301.641 360.041 C 294.632 356.629,289.630 356.320,279.875 358.695 C 269.459 361.230,244.465 361.250,227.734 358.736 C 219.213 357.455,213.086 357.092,200.000 357.092 C 186.914 357.092,180.787 357.455,172.266 358.736 C 155.535 361.250,130.541 361.230,120.125 358.695 C 110.319 356.307,105.326 356.610,98.338 360.014 C 92.498 362.859,90.364 362.649,87.968 358.993 C 84.418 353.575,85.909 348.403,94.016 338.022 C 115.949 309.933,123.102 288.599,122.952 251.715 L 122.866 230.382 120.613 228.012 C 117.961 225.221,109.991 219.580,98.066 212.053 C 92.365 208.455,86.604 203.879,80.878 198.402 C 64.016 182.273,57.367 180.207,35.938 184.436 C 8.618 189.828,2.696 175.713,19.685 145.703 C 46.681 98.018,88.545 85.457,106.678 119.601 C 113.284 132.040,118.733 136.617,127.711 137.267 C 139.734 138.137,143.767 130.178,139.735 113.538 C 128.764 68.267,169.484 28.438,215.450 39.480 M168.321 88.562 C 162.276 91.289,158.974 99.225,159.524 109.704 C 160.291 124.320,170.469 132.139,178.858 124.560 C 191.757 112.906,182.728 82.061,168.321 88.562 M223.453 88.868 C 217.825 91.696,214.352 100.390,215.068 109.858 C 216.844 133.335,239.242 133.200,240.476 109.704 C 241.287 94.243,232.984 84.080,223.453 88.868 M174.578 96.525 C 181.160 103.627,176.810 125.221,170.072 118.891 C 165.208 114.322,165.209 101.302,170.073 95.927 C 171.748 94.076,172.387 94.160,174.578 96.525 M229.927 95.927 C 234.791 101.302,234.792 114.322,229.928 118.891 C 223.190 125.221,218.840 103.627,225.422 96.525 C 227.613 94.160,228.252 94.076,229.927 95.927 M193.121 137.603 C 179.033 144.577,175.975 174.208,187.973 187.488 C 201.959 202.969,221.002 187.182,219.330 161.491 C 218.113 142.774,205.640 131.407,193.121 137.603 M205.373 145.710 C 215.825 155.152,214.095 180.851,202.686 185.617 C 191.806 190.163,183.072 166.892,190.127 152.156 C 194.650 142.709,199.692 140.577,205.373 145.710 " stroke="none" fill="#000000" fill-rule="evenodd"></path></g></svg>